# xmcd
#
# Track frame offsets: 
#        150
#        18550
#        32278
#        51051
#        64518
#        77504
#        90246
#        103354
#        115947
#
# Disc length: 1794 seconds
#
# Revision: 0
# Processed by: cddbd v1.5.2PL0 Copyright (c) Steve Scherf et al.
# Submitted via: ExactAudioCopy v0.99pb4
#
DISCID=61070009
DTITLE=Андрей Никольский - Завтра
DYEAR=2001
DGENRE=Vocal
TTITLE0=01. Года прошли
TTITLE1=02. Февраль
TTITLE2=03. Ах, как жаль
TTITLE3=04. Завтра
TTITLE4=05. Моя хорошая
TTITLE5=06. Мой дед казак
TTITLE6=07. Цыгане пели...
TTITLE7=08. Эх раз, через раз
TTITLE8=09. Ах, как жаль (караоке)
EXTD=
EXTT0=
EXTT1=
EXTT2=
EXTT3=
EXTT4=
EXTT5=
EXTT6=
EXTT7=
EXTT8=
PLAYORDER=
